<svg xmlns="http://www.w3.org/2000/svg" width="520" height="340" role="img" aria-labelledby="languages_programming-title languages_programming-desc">
<title id="languages_programming-title">Language distribution (programming &amp; scripts)</title>
<desc id="languages_programming-desc">Language distribution (programming &amp; scripts). Jupyter Notebook: 41.4%, TeX: 28.5%, C++: 14.1%, Python: 6.7%, JavaScript: 4.0%, C: 1.7%, MATLAB: 1.3%, CMake: 0.7%, Other: 1.5%</desc>
<defs>
<pattern id="p0" patternUnits="userSpaceOnUse" width="8" height="8"><rect width="8" height="8" fill="#DA5B0B"/></pattern>
<pattern id="p1" patternUnits="userSpaceOnUse" width="8" height="8"><rect width="8" height="8" fill="#e69f00"/><line x1="0" y1="8" x2="8" y2="0" stroke="rgba(0,0,0,0.22)" stroke-width="1.5"/></pattern>
<pattern id="p2" patternUnits="userSpaceOnUse" width="8" height="8"><rect width="8" height="8" fill="#00599C"/><line x1="0" y1="4" x2="8" y2="4" stroke="rgba(0,0,0,0.22)" stroke-width="1.5"/></pattern>
<pattern id="p3" patternUnits="userSpaceOnUse" width="8" height="8"><rect width="8" height="8" fill="#3776AB"/><line x1="4" y1="0" x2="4" y2="8" stroke="rgba(0,0,0,0.22)" stroke-width="1.5"/></pattern>
<pattern id="p4" patternUnits="userSpaceOnUse" width="8" height="8"><rect width="8" height="8" fill="#F7DF1E"/><line x1="0" y1="8" x2="8" y2="0" stroke="rgba(0,0,0,0.22)" stroke-width="1.5"/><line x1="0" y1="0" x2="8" y2="8" stroke="rgba(0,0,0,0.22)" stroke-width="1.5"/></pattern>
<pattern id="p5" patternUnits="userSpaceOnUse" width="8" height="8"><rect width="8" height="8" fill="#555555"/><circle cx="4" cy="4" r="1.5" fill="rgba(0,0,0,0.28)"/></pattern>
<pattern id="p6" patternUnits="userSpaceOnUse" width="8" height="8"><rect width="8" height="8" fill="#f0e442"/><line x1="0" y1="0" x2="8" y2="8" stroke="rgba(0,0,0,0.22)" stroke-width="1.5"/></pattern>
<pattern id="p7" patternUnits="userSpaceOnUse" width="8" height="8"><rect width="8" height="8" fill="#999999"/><line x1="0" y1="2" x2="8" y2="2" stroke="rgba(0,0,0,0.22)" stroke-width="1.5"/><line x1="0" y1="6" x2="8" y2="6" stroke="rgba(0,0,0,0.22)" stroke-width="1.5"/></pattern>
<pattern id="p8" patternUnits="userSpaceOnUse" width="8" height="8"><rect width="8" height="8" fill="#9CA3AF"/><line x1="2" y1="0" x2="2" y2="8" stroke="rgba(0,0,0,0.22)" stroke-width="1.5"/><line x1="6" y1="0" x2="6" y2="8" stroke="rgba(0,0,0,0.22)" stroke-width="1.5"/></pattern>
</defs>
<style>text { font-family: sans-serif; } .slice:focus{stroke:#000; stroke-width:3; outline:none} .slice{cursor:pointer}</style>
<text x="260" y="22" font-size="15" font-weight="bold" text-anchor="middle">Language distribution (programming &amp; scripts)</text>
<path class="slice" d="M 160 160 L 160.000 30.000 A 130 130 0 0 1 226.626 271.628 Z" fill="url(#p0)" stroke="white" stroke-width="1.5" role="img" aria-label="Jupyter Notebook: 41.4%" tabindex="0"><title>Jupyter Notebook: 41.4%</title></path>
<text x="237.7" y="138.6" font-size="11" fill="#fff" text-anchor="middle" dominant-baseline="middle" aria-hidden="true">41.4%</text>
<path class="slice" d="M 160 160 L 226.626 271.628 A 130 130 0 0 1 36.471 200.503 Z" fill="url(#p1)" stroke="white" stroke-width="1.5" role="img" aria-label="TeX: 28.5%" tabindex="0"><title>TeX: 28.5%</title></path>
<text x="131.8" y="235.5" font-size="11" fill="#fff" text-anchor="middle" dominant-baseline="middle" aria-hidden="true">28.5%</text>
<path class="slice" d="M 160 160 L 36.471 200.503 A 130 130 0 0 1 50.607 89.763 Z" fill="url(#p2)" stroke="white" stroke-width="1.5" role="img" aria-label="C++: 14.1%" tabindex="0"><title>C++: 14.1%</title></path>
<text x="80.0" y="149.8" font-size="11" fill="#fff" text-anchor="middle" dominant-baseline="middle" aria-hidden="true">14.1%</text>
<path class="slice" d="M 160 160 L 50.607 89.763 A 130 130 0 0 1 88.991 51.107 Z" fill="url(#p3)" stroke="white" stroke-width="1.5" role="img" aria-label="Python: 6.7%" tabindex="0"><title>Python: 6.7%</title></path>
<text x="102.8" y="103.2" font-size="11" fill="#fff" text-anchor="middle" dominant-baseline="middle" aria-hidden="true">6.7%</text>
<path class="slice" d="M 160 160 L 88.991 51.107 A 130 130 0 0 1 118.519 36.796 Z" fill="url(#p4)" stroke="white" stroke-width="1.5" role="img" aria-label="JavaScript: 4.0%" tabindex="0"><title>JavaScript: 4.0%</title></path>
<path class="slice" d="M 160 160 L 118.519 36.796 A 130 130 0 0 1 131.831 33.089 Z" fill="url(#p5)" stroke="white" stroke-width="1.5" role="img" aria-label="C: 1.7%" tabindex="0"><title>C: 1.7%</title></path>
<path class="slice" d="M 160 160 L 131.831 33.089 A 130 130 0 0 1 142.139 31.233 Z" fill="url(#p6)" stroke="white" stroke-width="1.5" role="img" aria-label="MATLAB: 1.3%" tabindex="0"><title>MATLAB: 1.3%</title></path>
<path class="slice" d="M 160 160 L 142.139 31.233 A 130 130 0 0 1 147.528 30.600 Z" fill="url(#p7)" stroke="white" stroke-width="1.5" role="img" aria-label="CMake: 0.7%" tabindex="0"><title>CMake: 0.7%</title></path>
<path class="slice" d="M 160 160 L 147.528 30.600 A 130 130 0 0 1 160.000 30.000 Z" fill="url(#p8)" stroke="white" stroke-width="1.5" role="img" aria-label="Other: 1.5%" tabindex="0"><title>Other: 1.5%</title></path>
<rect x="310" y="30" width="14" height="14" fill="url(#p0)" rx="2" stroke="#DA5B0B" stroke-width="1" aria-hidden="true"/>
<text x="332" y="41" font-size="13" aria-hidden="true">Jupyter Notebook 41.4%</text>
<rect x="310" y="56" width="14" height="14" fill="url(#p1)" rx="2" stroke="#e69f00" stroke-width="1" aria-hidden="true"/>
<text x="332" y="67" font-size="13" aria-hidden="true">TeX 28.5%</text>
<rect x="310" y="82" width="14" height="14" fill="url(#p2)" rx="2" stroke="#00599C" stroke-width="1" aria-hidden="true"/>
<text x="332" y="93" font-size="13" aria-hidden="true">C++ 14.1%</text>
<rect x="310" y="108" width="14" height="14" fill="url(#p3)" rx="2" stroke="#3776AB" stroke-width="1" aria-hidden="true"/>
<text x="332" y="119" font-size="13" aria-hidden="true">Python 6.7%</text>
<rect x="310" y="134" width="14" height="14" fill="url(#p4)" rx="2" stroke="#F7DF1E" stroke-width="1" aria-hidden="true"/>
<text x="332" y="145" font-size="13" aria-hidden="true">JavaScript 4.0%</text>
<rect x="310" y="160" width="14" height="14" fill="url(#p5)" rx="2" stroke="#555555" stroke-width="1" aria-hidden="true"/>
<text x="332" y="171" font-size="13" aria-hidden="true">C 1.7%</text>
<rect x="310" y="186" width="14" height="14" fill="url(#p6)" rx="2" stroke="#f0e442" stroke-width="1" aria-hidden="true"/>
<text x="332" y="197" font-size="13" aria-hidden="true">MATLAB 1.3%</text>
<rect x="310" y="212" width="14" height="14" fill="url(#p7)" rx="2" stroke="#999999" stroke-width="1" aria-hidden="true"/>
<text x="332" y="223" font-size="13" aria-hidden="true">CMake 0.7%</text>
<rect x="310" y="238" width="14" height="14" fill="url(#p8)" rx="2" stroke="#9CA3AF" stroke-width="1" aria-hidden="true"/>
<text x="332" y="249" font-size="13" aria-hidden="true">Other 1.5%</text>
</svg>