<svg xmlns="http://www.w3.org/2000/svg"
  width="520" height="220" viewBox="0 0 520 220">
<style>
.label, .value, .title {
  font-family: -apple-system, BlinkMacSystemFont,
               "Segoe UI", Helvetica, Arial, sans-serif;
  fill: #374151;
}
.title { font-size: 16px; font-weight: 600; }
.label { font-size: 14px; }
.value { font-size: 13px; }

/* slice border: visible in both light and dark modes */
.slice {
    stroke: rgba(0,0,0,0.85);
    stroke-width: 2px;
    stroke-linejoin: round;
}

@media (prefers-color-scheme: dark) {
  .label, .value, .title { fill: #E5E7EB; }
    .slice {
        stroke: rgba(255,255,255,0.85);
    }
}
</style>

<text x="20" y="24" class="title">Programming Languages</text>
<path class="slice" d="M 110,110 L 110.00,30.00 A 80,80 0 1,1 51.72,164.80 Z" fill="#F37626"/><path class="slice" d="M 110,110 L 51.72,164.80 A 80,80 0 0,1 43.74,65.18 Z" fill="#00599C"/><path class="slice" d="M 110,110 L 43.74,65.18 A 80,80 0 0,1 80.66,35.58 Z" fill="#3776AB"/><path class="slice" d="M 110,110 L 80.66,35.58 A 80,80 0 0,1 93.02,31.82 Z" fill="#555555"/><path class="slice" d="M 110,110 L 93.02,31.82 A 80,80 0 0,1 102.70,30.33 Z" fill="#e16737"/><path class="slice" d="M 110,110 L 102.70,30.33 A 80,80 0 0,1 110.00,30.00 Z" fill="#9CA3AF"/><rect x="230" y="40" width="12" height="12" fill="#F37626"/><text x="250" y="50" class="label">Jupyter Notebook</text><text x="460" y="50" class="value">63.0%</text><rect x="230" y="66" width="12" height="12" fill="#00599C"/><text x="250" y="76" class="label">C++</text><text x="460" y="76" class="value">21.5%</text><rect x="230" y="92" width="12" height="12" fill="#3776AB"/><text x="250" y="102" class="label">Python</text><text x="460" y="102" class="value">9.6%</text><rect x="230" y="118" width="12" height="12" fill="#555555"/><text x="250" y="128" class="label">C</text><text x="460" y="128" class="value">2.6%</text><rect x="230" y="144" width="12" height="12" fill="#e16737"/><text x="250" y="154" class="label">MATLAB</text><text x="460" y="154" class="value">1.9%</text><rect x="230" y="170" width="12" height="12" fill="#9CA3AF"/><text x="250" y="180" class="label">Other</text><text x="460" y="180" class="value">1.5%</text></svg>