<svg xmlns="http://www.w3.org/2000/svg"
  width="520" height="220" viewBox="0 0 520 220">
<style>
.label, .value, .title {
  font-family: -apple-system, BlinkMacSystemFont,
               "Segoe UI", Helvetica, Arial, sans-serif;
  fill: #374151;
}
.title { font-size: 16px; font-weight: 600; }
.label { font-size: 14px; }
.value { font-size: 13px; }

/* slice border: visible in both light and dark modes */
.slice {
    stroke: rgba(0,0,0,0.85);
    stroke-width: 2px;
    stroke-linejoin: round;
}

@media (prefers-color-scheme: dark) {
  .label, .value, .title { fill: #E5E7EB; }
    .slice {
        stroke: rgba(255,255,255,0.85);
    }
}
</style>

<text x="20" y="24" class="title">Markup / Config Languages</text>
<path class="slice" d="M 110,110 L 110.00,30.00 A 80,80 0 1,1 101.96,30.41 Z" fill="#3D6117"/><path class="slice" d="M 110,110 L 101.96,30.41 A 80,80 0 0,1 106.51,30.08 Z" fill="#E34F26"/><path class="slice" d="M 110,110 L 106.51,30.08 A 80,80 0 0,1 108.94,30.01 Z" fill="#1572B6"/><path class="slice" d="M 110,110 L 108.94,30.01 A 80,80 0 0,1 110.00,30.00 Z" fill="#427819"/><rect x="230" y="40" width="12" height="12" fill="#3D6117"/><text x="250" y="50" class="label">TeX</text><text x="460" y="50" class="value">98.4%</text><rect x="230" y="66" width="12" height="12" fill="#E34F26"/><text x="250" y="76" class="label">HTML</text><text x="460" y="76" class="value">0.9%</text><rect x="230" y="92" width="12" height="12" fill="#1572B6"/><text x="250" y="102" class="label">CSS</text><text x="460" y="102" class="value">0.5%</text><rect x="230" y="118" width="12" height="12" fill="#427819"/><text x="250" y="128" class="label">Makefile</text><text x="460" y="128" class="value">0.2%</text></svg>