<svg xmlns="http://www.w3.org/2000/svg" width="560" height="380" role="img" aria-labelledby="languages-title languages-desc">
<title id="languages-title">Language distribution</title>
<desc id="languages-desc">Language distribution. Python: 65.3%, SVG: 34.1%, Markdown: 0.4%, JSON: 0.2%, Other: 0.0%</desc>
<style>:root{--bg-fill:#f0f0f0;--title-fill:#000000;--subtitle-fill:#333333;--center-fill:white;--center-text-main:#444444;--center-text-sub:#777777;--legend-text-fill:#000000;--slice-focus-stroke:#000000;--pct-label-inside-fill:#ffffff;--slice-edge:white;--overlay-color:rgba(0,0,0,0.22);}@media (prefers-color-scheme: dark){:root{--bg-fill:#0b0b0b;--title-fill:#ffffff;--subtitle-fill:#dddddd;--center-fill:#0b0b0b;--center-text-main:#ffffff;--center-text-sub:#cccccc;--legend-text-fill:#ffffff;--slice-focus-stroke:#ffffff;--pct-label-inside-fill:#ffffff;--slice-edge:#0b0b0b;--overlay-color:rgba(255,255,255,0.18);}}text{font-family:sans-serif;} .slice:focus{stroke:var(--slice-focus-stroke);stroke-width:3;outline:none} .slice{cursor:pointer} </style>
<defs>
<pattern id="p0" patternUnits="userSpaceOnUse" width="8" height="8"><rect width="8" height="8" fill="#3776AB"/></pattern>
<pattern id="p1" patternUnits="userSpaceOnUse" width="8" height="8"><rect width="8" height="8" fill="#FFB13B"/><line x1="0" y1="8" x2="8" y2="0" stroke="var(--overlay-color)" stroke-width="1.5"/></pattern>
<pattern id="p2" patternUnits="userSpaceOnUse" width="8" height="8"><rect width="8" height="8" fill="#083FA1"/><line x1="0" y1="4" x2="8" y2="4" stroke="var(--overlay-color)" stroke-width="1.5"/></pattern>
<pattern id="p3" patternUnits="userSpaceOnUse" width="8" height="8"><rect width="8" height="8" fill="#292929"/><line x1="4" y1="0" x2="4" y2="8" stroke="var(--overlay-color)" stroke-width="1.5"/></pattern>
<pattern id="p4" patternUnits="userSpaceOnUse" width="8" height="8"><rect width="8" height="8" fill="#9CA3AF"/><line x1="0" y1="8" x2="8" y2="0" stroke="var(--overlay-color)" stroke-width="1.5"/><line x1="0" y1="0" x2="8" y2="8" stroke="var(--overlay-color)" stroke-width="1.5"/></pattern>
</defs>
<circle cx="175" cy="185" r="155" fill="var(--bg-fill)"/>
<text x="175" y="16" font-size="15" font-weight="bold" text-anchor="middle" fill="var(--title-fill)">Language distribution</text>
<path class="slice" d="M 175.000 30.000 A 155 155 0 1 1 48.073 273.964 L 113.584 228.047 A 75 75 0 1 0 175.000 110.000 Z" fill="url(#p0)" stroke="var(--slice-edge)" stroke-width="1.5" role="img" aria-label="Python: 65.3%" tabindex="0"><title>Python: 65.3%</title></path>
<text x="277.0" y="238.1" font-size="11" fill="var(--pct-label-inside-fill)" text-anchor="middle" dominant-baseline="middle" aria-hidden="true">65.3%</text>
<path class="slice" d="M 48.073 273.964 A 155 155 0 0 1 169.100 30.112 L 172.145 110.054 A 75 75 0 0 0 113.584 228.047 Z" fill="url(#p1)" stroke="var(--slice-edge)" stroke-width="1.5" role="img" aria-label="SVG: 34.1%" tabindex="0"><title>SVG: 34.1%</title></path>
<text x="72.0" y="133.9" font-size="11" fill="var(--pct-label-inside-fill)" text-anchor="middle" dominant-baseline="middle" aria-hidden="true">34.1%</text>
<path class="slice" d="M 169.100 30.112 A 155 155 0 0 1 173.204 30.010 L 174.131 110.005 A 75 75 0 0 0 172.145 110.054 Z" fill="url(#p2)" stroke="var(--slice-edge)" stroke-width="1.5" role="img" aria-label="Markdown: 0.4%" tabindex="0"><title>Markdown: 0.4%</title></path>
<path class="slice" d="M 173.204 30.010 A 155 155 0 0 1 174.743 30.000 L 174.876 110.000 A 75 75 0 0 0 174.131 110.005 Z" fill="url(#p3)" stroke="var(--slice-edge)" stroke-width="1.5" role="img" aria-label="JSON: 0.2%" tabindex="0"><title>JSON: 0.2%</title></path>
<path class="slice" d="M 174.743 30.000 A 155 155 0 0 1 175.000 30.000 L 175.000 110.000 A 75 75 0 0 0 174.876 110.000 Z" fill="url(#p4)" stroke="var(--slice-edge)" stroke-width="1.5" role="img" aria-label="Other: 0.0%" tabindex="0"><title>Other: 0.0%</title></path>
<circle cx="175" cy="185" r="75" fill="var(--center-fill)"/><text x="175" y="177" font-size="13" font-weight="bold" text-anchor="middle" fill="var(--center-text-main)">Languages</text><text x="175" y="197" font-size="11" text-anchor="middle" fill="var(--center-text-sub)">5 shown</text>
<rect x="355" y="30" width="14" height="14" fill="url(#p0)" rx="2" stroke="#3776AB" stroke-width="1" aria-hidden="true"/>
<text x="377" y="41" font-size="13" aria-hidden="true" fill="var(--legend-text-fill)">Python 65.3%</text>
<rect x="355" y="58" width="14" height="14" fill="url(#p1)" rx="2" stroke="#FFB13B" stroke-width="1" aria-hidden="true"/>
<text x="377" y="69" font-size="13" aria-hidden="true" fill="var(--legend-text-fill)">SVG 34.1%</text>
<rect x="355" y="86" width="14" height="14" fill="url(#p2)" rx="2" stroke="#083FA1" stroke-width="1" aria-hidden="true"/>
<text x="377" y="97" font-size="13" aria-hidden="true" fill="var(--legend-text-fill)">Markdown 0.4%</text>
<rect x="355" y="114" width="14" height="14" fill="url(#p3)" rx="2" stroke="#292929" stroke-width="1" aria-hidden="true"/>
<text x="377" y="125" font-size="13" aria-hidden="true" fill="var(--legend-text-fill)">JSON 0.2%</text>
<rect x="355" y="142" width="14" height="14" fill="url(#p4)" rx="2" stroke="#9CA3AF" stroke-width="1" aria-hidden="true"/>
<text x="377" y="153" font-size="13" aria-hidden="true" fill="var(--legend-text-fill)">Other 0.0%</text>
</svg>